<svg xmlns="http://www.w3.org/2000/svg" width="39" height="38" fill="none"><g clip-path="url(#a)"><path fill="#470137" d="M32.093 0H6.907A6.904 6.904 0 0 0 0 6.902v24.196A6.904 6.904 0 0 0 6.907 38h25.186A6.904 6.904 0 0 0 39 31.098V6.902A6.904 6.904 0 0 0 32.093 0Z"/><path fill="#FF61F6" d="m20.502 9.994-4.866 8.026 5.206 8.523c.034.06.043.13.026.196-.017.061-.076.023-.183.04h-3.714c-.261 0-.444-.01-.55-.183a368.1 368.1 0 0 0-1.045-2.026c-.35-.671-.72-1.356-1.112-2.054a123.21 123.21 0 0 1-1.164-2.118h-.027a80.09 80.09 0 0 1-1.086 2.092c-.375.697-.745 1.39-1.112 2.079a98.654 98.654 0 0 1-1.124 2.053c-.07.157-.192.174-.366.174H5.798c-.069 0-.108.027-.117-.043a.264.264 0 0 1 .039-.183l5.05-8.29L5.85 9.967c-.053-.07-.06-.126-.026-.17a.187.187 0 0 1 .157-.062H9.67a.557.557 0 0 1 .236.039.484.484 0 0 1 .156.144c.314.697.663 1.394 1.047 2.092.384.697.772 1.384 1.164 2.06.392.68.754 1.369 1.086 2.066h.026c.349-.715.702-1.412 1.06-2.092.357-.68.723-1.364 1.098-2.053.375-.689.737-1.373 1.086-2.054a.41.41 0 0 1 .105-.17.376.376 0 0 1 .209-.039h3.425a.152.152 0 0 1 .13.262l.003.004ZM28.01 27.118a8.114 8.114 0 0 1-3.493-.731 5.56 5.56 0 0 1-2.447-2.21c-.592-.985-.889-2.218-.89-3.7a6.842 6.842 0 0 1 .89-3.422 6.53 6.53 0 0 1 2.588-2.51c1.133-.627 2.503-.94 4.11-.94.087 0 .2 0 .34.013s.304.022.497.038V8.503c0-.122.052-.182.157-.182h3.296a.14.14 0 0 1 .157.156v15.451c0 .297.013.62.04.968.025.348.047.662.065.941a.271.271 0 0 1-.157.262c-.85.354-1.736.617-2.643.784-.828.153-1.668.232-2.51.235Zm1.599-3.241v-7.138a2.526 2.526 0 0 0-.432-.076 5.284 5.284 0 0 0-.536-.027 4.047 4.047 0 0 0-1.832.419 3.57 3.57 0 0 0-1.37 1.203c-.358.523-.537 1.21-.537 2.065-.012.57.08 1.137.275 1.673.158.432.408.824.732 1.15.311.3.687.524 1.1.655.435.14.89.21 1.347.208.244 0 .47-.009.68-.026.193-.015.383-.051.569-.106h.004Z"/></g><defs><clipPath id="a"><path fill="#fff" d="M0 0h39v38H0z"/></clipPath></defs></svg>