<svg xmlns="http://www.w3.org/2000/svg" width="46" height="37" fill="none"><path fill="#6C10ED" d="M26.634 14.128c0-1.77-1.246-2.747-3.434-2.747h-4.025v5.702h3.394c2.62-.008 4.065-1.065 4.065-2.955Zm14.654-1.025c-.758-2.475-.87-5.51-.782-7.856.087-2.442-1.813-4.684-4.369-4.684H9.88c-2.564 0-4.456 2.25-4.369 4.684.08 2.346-.023 5.381-.782 7.856-.767 2.482-2.053 4.052-4.169 4.252v2.282c2.108.2 3.402 1.77 4.169 4.252.759 2.475.87 5.51.782 7.856-.087 2.442 1.813 4.684 4.369 4.684h26.25c2.564 0 4.457-2.25 4.369-4.684-.08-2.346.024-5.381.782-7.856.767-2.482 2.053-4.052 4.161-4.252v-2.282c-2.1-.2-3.394-1.77-4.153-4.252ZM23.974 28.037h-7.818V8.955h7.778c3.458 0 5.726 1.873 5.726 4.756 0 2.026-1.525 3.836-3.474 4.148v.104c2.652.289 4.433 2.13 4.433 4.669 0 3.371-2.5 5.405-6.645 5.405Zm-.798-8.704h-4.001v6.278h4.176c2.732 0 4.177-1.097 4.177-3.163 0-2.058-1.485-3.115-4.352-3.115Z"/></svg>