<svg xmlns="http://www.w3.org/2000/svg" width="36" height="36" fill="none"><path fill="url(#a)" d="M34.2 0H1.8C.823 0 0 .823 0 1.8v32.4c0 .977.823 1.8 1.8 1.8h32.4c.977 0 1.8-.823 1.8-1.8V1.8c0-.977-.823-1.8-1.8-1.8ZM13.217 25.971H10.03V10.03h3.188V25.97Zm12.806 0h-9.617v-3.188h9.617v3.188Zm0-6.377h-9.617v-3.188h9.617v3.188Zm0-6.377h-9.617V10.03h9.617v3.188Z"/><defs><linearGradient id="a" x1="35.974" x2="-.026" y1="-.036" y2="35.964" gradientUnits="userSpaceOnUse"><stop stop-color="#ED345E"/><stop offset="1" stop-color="#382C74"/></linearGradient></defs></svg>