<svg xmlns="http://www.w3.org/2000/svg" width="26" height="35" fill="none"><path fill="#000" d="M.948 6.548C.948 2.932 3.852 0 7.434 0h11.129c3.582 0 6.486 2.932 6.486 6.548a6.558 6.558 0 0 1-2.928 5.476 6.559 6.559 0 0 1 2.928 5.476c0 3.617-2.904 6.549-6.486 6.549h-.14c-1.68 0-3.21-.645-4.362-1.702v6.034c0 3.664-2.98 6.619-6.592 6.619-3.573 0-6.521-2.923-6.521-6.548a6.559 6.559 0 0 1 2.928-5.476A6.559 6.559 0 0 1 .948 17.5a6.559 6.559 0 0 1 2.928-5.476A6.559 6.559 0 0 1 .948 6.548Zm10.988 6.549H7.434c-2.409 0-4.362 1.971-4.362 4.403 0 2.423 1.938 4.388 4.334 4.403H11.936v-8.806Zm2.125 4.403c0 2.432 1.952 4.404 4.361 4.404h.14c2.41 0 4.362-1.972 4.362-4.404s-1.952-4.403-4.361-4.403h-.14c-2.41 0-4.362 1.971-4.362 4.403ZM7.434 24.05h-.028c-2.396.015-4.334 1.98-4.334 4.403 0 2.423 1.98 4.403 4.397 4.403 2.456 0 4.467-2.012 4.467-4.474v-4.332H7.434Zm0-21.904c-2.409 0-4.362 1.971-4.362 4.403 0 2.432 1.953 4.404 4.362 4.404h4.502V2.145H7.434Zm6.627 8.807h4.502c2.409 0 4.361-1.972 4.361-4.404s-1.952-4.403-4.361-4.403H14.06v8.807Z"/></svg>