<svg xmlns="http://www.w3.org/2000/svg" width="39" height="38" fill="none"><g clip-path="url(#a)"><path fill="#300" d="M32.094 0H6.906A6.904 6.904 0 0 0 0 6.902v24.196A6.904 6.904 0 0 0 6.906 38h25.188A6.904 6.904 0 0 0 39 31.098V6.902A6.904 6.904 0 0 0 32.094 0Z"/><path fill="#FF9A00" d="M18.899 22.805h-6.044l-1.23 3.817a.305.305 0 0 1-.314.235h-3.06c-.175 0-.236-.096-.183-.288L13.3 11.507c.051-.157.103-.335.157-.534.068-.349.103-.703.105-1.059a.16.16 0 0 1 .077-.162.162.162 0 0 1 .106-.02h4.16c.121 0 .19.043.209.13l5.939 16.733c.052.174 0 .262-.157.262h-3.401a.242.242 0 0 1-.262-.183l-1.334-3.87Zm-5.102-3.297h4.133a61.266 61.266 0 0 0-.366-1.176c-.14-.436-.288-.902-.444-1.4l-.472-1.49c-.157-.496-.3-.976-.431-1.438-.13-.462-.25-.884-.356-1.265h-.026a21.09 21.09 0 0 1-.55 2.091l-.746 2.406c-.253.819-.5 1.576-.742 2.272ZM27.584 12.504a1.9 1.9 0 0 1-1.439-.576 2.066 2.066 0 0 1-.549-1.49 1.917 1.917 0 0 1 .589-1.448 2.023 2.023 0 0 1 1.449-.563c.628 0 1.12.188 1.477.563.363.393.555.913.534 1.448a2.039 2.039 0 0 1-.563 1.49 2.008 2.008 0 0 1-1.498.575ZM25.78 26.595V14.098c0-.157.07-.236.21-.236h3.216c.139 0 .21.076.21.236v12.497c0 .174-.07.262-.21.262h-3.19c-.157 0-.236-.087-.236-.262Z"/></g><defs><clipPath id="a"><path fill="#fff" d="M0 0h39v38H0z"/></clipPath></defs></svg>