<svg width="24" height="25" viewBox="0 0 24 25" fill="none" xmlns="http://www.w3.org/2000/svg">
<path d="M12.0053 6.43556C8.5982 6.43556 5.84999 9.14083 5.84999 12.4947C5.84999 15.8486 8.5982 18.5539 12.0053 18.5539C15.4125 18.5539 18.1607 15.8486 18.1607 12.4947C18.1607 9.14083 15.4125 6.43556 12.0053 6.43556ZM12.0053 16.434C9.80356 16.434 8.00356 14.6674 8.00356 12.4947C8.00356 10.3221 9.7982 8.55548 12.0053 8.55548C14.2125 8.55548 16.0071 10.3221 16.0071 12.4947C16.0071 14.6674 14.2071 16.434 12.0053 16.434ZM19.8482 6.18771C19.8482 6.97345 19.2053 7.60099 18.4125 7.60099C17.6143 7.60099 16.9768 6.96818 16.9768 6.18771C16.9768 5.40724 17.6196 4.77443 18.4125 4.77443C19.2053 4.77443 19.8482 5.40724 19.8482 6.18771ZM23.925 7.62208C23.8339 5.72892 23.3946 4.05197 21.9857 2.67032C20.5821 1.28868 18.8786 0.856262 16.9553 0.76134C14.9732 0.650598 9.03213 0.650598 7.04999 0.76134C5.13213 0.850989 3.42856 1.28341 2.01963 2.66505C0.610704 4.04669 0.176775 5.72364 0.0803467 7.61681C-0.0321533 9.56798 -0.0321533 15.4162 0.0803467 17.3674C0.171418 19.2606 0.610704 20.9375 2.01963 22.3192C3.42856 23.7008 5.12678 24.1332 7.04999 24.2281C9.03213 24.3389 14.9732 24.3389 16.9553 24.2281C18.8786 24.1385 20.5821 23.7061 21.9857 22.3192C23.3893 20.9375 23.8286 19.2606 23.925 17.3674C24.0375 15.4162 24.0375 9.57325 23.925 7.62208ZM21.3643 19.4609C20.9464 20.4945 20.1375 21.2908 19.0821 21.7074C17.5018 22.3244 13.7518 22.182 12.0053 22.182C10.2589 22.182 6.50356 22.3192 4.92856 21.7074C3.87856 21.2961 3.06963 20.4998 2.64642 19.4609C2.01963 17.9053 2.16428 14.2139 2.16428 12.4947C2.16428 10.7756 2.02499 7.07892 2.64642 5.52853C3.06428 4.49493 3.8732 3.69864 4.92856 3.28204C6.50892 2.66505 10.2589 2.80743 12.0053 2.80743C13.7518 2.80743 17.5071 2.67032 19.0821 3.28204C20.1321 3.69337 20.9411 4.48966 21.3643 5.52853C21.9911 7.08419 21.8464 10.7756 21.8464 12.4947C21.8464 14.2139 21.9911 17.9106 21.3643 19.4609Z" fill="#E5E5E5"/>
</svg>
