<svg xmlns="http://www.w3.org/2000/svg" width="34" height="34" fill="none"><path fill="#21609B" fill-rule="evenodd" d="m33.21 25.048-.151.395c-2.594 5.06-7.19 8.163-13.744 8.3-3.064.063-5.983-.725-7.89-1.58-4.116-1.853-7.578-5.29-9.469-8.96-2.712-5.262-3.201-12.582 2.438-18.049.087 0-.684 1.186-.597 1.186l-.155.506C-.422 19.59 12.098 30.513 24.268 29.264c2.925-.3 6.655-1.905 8.943-4.216Z" clip-rule="evenodd"/><path fill="#21609B" fill-rule="evenodd" d="M25.846 19.778c3.062.02 6.26-1.413 8.154-3.425-1.657 4.213-6.455 6.921-12.888 6.06-5.387-.722-10.518-6.153-11.047-11.594-.386-3.96.991-6.324 3.261-9.19-.789 1.499-1.083 2.655-1.157 3.393-.862 8.566 6.831 14.71 13.677 14.756Z" clip-rule="evenodd"/><path fill="#21609B" fill-rule="evenodd" d="M33.692 9.138c-.476 1.094-3.216 3.159-4.426 3.417-4.793 1.023-7.862-1.254-9.47-3.844-.238-.387-.68-1.444-.76-1.712C18.414 4.875 18.7 1.663 20.56 0c-.56 1.581-.642 3.417-.347 4.611.178.722.723 1.982 1.267 2.775.991 1.444 1.62 1.794 2.893 2.561.574.345 1.19.622 1.455.698 1.207.356 3.756 1.294 7.865-1.507" clip-rule="evenodd"/></svg>