<svg xmlns="http://www.w3.org/2000/svg" width="36" height="37" fill="none"><path fill="#FCA311" d="M0 .563v35.874h36V.563H0Zm19.591 27.979c0 3.491-2.057 5.085-5.054 5.085-2.708 0-4.275-1.394-5.079-3.083l2.756-1.658c.53.937 1.013 1.73 2.178 1.73 1.109 0 1.816-.433 1.816-2.122v-11.46h3.383v11.508Zm8.004 5.085c-3.142 0-5.175-1.49-6.164-3.444l2.756-1.585c.724 1.177 1.672 2.05 3.335 2.05 1.399 0 2.299-.697 2.299-1.666 0-1.153-.917-1.561-2.467-2.242l-.844-.36c-2.443-1.033-4.058-2.339-4.058-5.085 0-2.53 1.936-4.453 4.95-4.453 2.153 0 3.696.745 4.805 2.699l-2.636 1.682c-.578-1.033-1.205-1.442-2.177-1.442-.989 0-1.615.625-1.615 1.442 0 1.009.626 1.417 2.08 2.05l.845.36c2.876 1.225 4.492 2.482 4.492 5.301 0 3.027-2.395 4.693-5.601 4.693Z"/></svg>