<svg xmlns="http://www.w3.org/2000/svg" width="39" height="38" fill="none"><g clip-path="url(#a)"><path fill="#001E36" d="M32.094 0H6.906A6.904 6.904 0 0 0 0 6.901V31.1A6.904 6.904 0 0 0 6.906 38h25.188A6.904 6.904 0 0 0 39 31.099V6.9A6.904 6.904 0 0 0 32.094 0Z"/><path fill="#31A8FF" d="M8.782 26.648V9.941c0-.121.052-.183.157-.183.278 0 .534 0 .915-.013.38-.013.798-.018 1.243-.026l1.412-.027c.497-.008.99-.013 1.478-.013 1.326 0 2.443.166 3.353.497a5.822 5.822 0 0 1 2.184 1.333c.526.522.932 1.15 1.19 1.844.245.676.369 1.389.366 2.107 0 1.395-.323 2.545-.968 3.451a5.474 5.474 0 0 1-2.616 1.974c-1.1.41-2.32.548-3.664.548-.38 0-.654-.003-.81-.012-.158-.01-.393-.013-.707-.013v5.216a.208.208 0 0 1-.235.235H8.965c-.125-.002-.183-.072-.183-.211Zm3.533-13.752v5.449c.227.017.436.026.628.026h.864a6.143 6.143 0 0 0 1.87-.3 2.82 2.82 0 0 0 1.335-.86c.34-.4.51-.959.51-1.675a2.645 2.645 0 0 0-.381-1.438 2.438 2.438 0 0 0-1.137-.928 4.855 4.855 0 0 0-1.906-.327c-.419 0-.79.004-1.112.013a6.824 6.824 0 0 0-.667.04h-.004ZM31.196 17.354a6.102 6.102 0 0 0-1.557-.55 8.255 8.255 0 0 0-1.819-.209 3.382 3.382 0 0 0-.98.118.88.88 0 0 0-.511.327.821.821 0 0 0-.13.445c.004.153.06.3.157.418.152.179.34.325.55.431.372.2.756.378 1.15.533.878.294 1.717.694 2.499 1.19.532.336.972.798 1.282 1.346.26.52.391 1.095.38 1.676a3.761 3.761 0 0 1-.627 2.157 4.132 4.132 0 0 1-1.819 1.45c-.795.35-1.777.525-2.946.525a10.717 10.717 0 0 1-2.21-.21 7.051 7.051 0 0 1-1.661-.523.338.338 0 0 1-.184-.314v-2.823a.153.153 0 0 1 .066-.144.127.127 0 0 1 .144.013c.626.37 1.306.639 2.016.798.625.157 1.266.24 1.91.248.61 0 1.06-.078 1.348-.235a.74.74 0 0 0 .431-.68c0-.227-.13-.445-.392-.654-.262-.209-.794-.46-1.597-.754a9.608 9.608 0 0 1-2.316-1.176 3.993 3.993 0 0 1-1.23-1.371 3.603 3.603 0 0 1-.38-1.66 3.745 3.745 0 0 1 .55-1.967 3.99 3.99 0 0 1 1.7-1.49c.768-.383 1.727-.575 2.878-.575.675-.006 1.348.042 2.015.143.483.062.955.19 1.402.38a.24.24 0 0 1 .157.145c.018.063.027.13.026.195v2.641a.175.175 0 0 1-.076.157.255.255 0 0 1-.226-.001Z"/></g><defs><clipPath id="a"><path fill="#fff" d="M0 0h39v38H0z"/></clipPath></defs></svg>