<svg xmlns="http://www.w3.org/2000/svg" width="47" height="47" fill="none"><path fill="#FF9A00" d="M21.912.092a2.689 2.689 0 0 0-.808.312c-.376.257-.532.505-.991 1.661l-.285.735-1.037.321c-.56.174-1.58.588-2.25.927l-1.23.606-.926-.395c-1.634-.697-2.01-.587-3.7 1.111C9.18 6.894 9.07 7.29 9.74 8.904l.394.946-.376.697a16.947 16.947 0 0 0-1.248 3.039l-.22.762-.91.358c-1.092.44-1.358.624-1.624 1.11-.193.359-.202.505-.202 2.13 0 .955.027 1.855.073 2.001.147.533.652.937 1.68 1.35.532.22.982.44 1 .496.395 1.312.717 2.157 1.212 3.166l.597 1.221-.395.974c-.44 1.073-.495 1.606-.22 2.138.092.175.68.826 1.304 1.46 1.046 1.046 1.129 1.157 1.046 1.377-.046.128-.936 2.185-1.974 4.571-1.037 2.396-1.937 4.526-1.982 4.746-.157.689.073 1.469.596 2.056.643.707.918.772 3.259.817l2.065.037 1.194 1.166c1.019 1 1.267 1.203 1.689 1.34.89.294 1.91.028 2.543-.66.192-.212.954-1.782 2.249-4.627 1.074-2.369 1.983-4.306 2.01-4.306.027 0 .936 1.937 2.01 4.306 1.295 2.845 2.057 4.415 2.25 4.626a2.457 2.457 0 0 0 2.542.661c.422-.137.67-.34 1.69-1.34l1.193-1.166 2.065-.037c1.928-.036 2.093-.055 2.497-.247.982-.478 1.551-1.552 1.358-2.58-.045-.23-.954-2.414-2.02-4.865a530.387 530.387 0 0 1-1.991-4.59c-.018-.082.395-.578 1.102-1.285.624-.633 1.211-1.294 1.303-1.469.275-.532.211-1.12-.22-2.13-.202-.486-.377-.927-.377-.973 0-.046.23-.514.505-1.037.276-.532.689-1.524.909-2.203l.413-1.23.946-.395c.523-.22 1.065-.505 1.202-.642.542-.514.57-.634.57-2.635 0-1.726-.01-1.863-.203-2.221-.266-.496-.587-.716-1.661-1.139l-.872-.34-.22-.752a16.677 16.677 0 0 0-1.249-3.039l-.376-.697.404-.955c.67-1.616.569-1.992-1.047-3.608-1.597-1.597-2.01-1.716-3.608-1.028l-.927.395-1.23-.606c-.67-.34-1.689-.753-2.249-.927L27.172 2.8l-.33-.826C26.4.854 26.171.524 25.647.266c-.386-.183-.597-.211-1.863-.23-.79-.018-1.634.01-1.873.056Zm2.79 1.524c.331.055.35.082.68.945.596 1.524.615 1.542 1.22 1.708 1.68.468 3.058 1.028 4.27 1.762.642.386.697.386 2.028-.202.523-.23 1.019-.413 1.102-.413.201 0 2.074 1.91 2.074 2.111 0 .092-.183.597-.404 1.12-.541 1.258-.56 1.34-.33 1.726.624 1.065 1.404 2.827 1.68 3.791.174.606.376 1.166.45 1.249.073.091.633.358 1.23.596.596.248 1.12.487 1.156.542.129.193.083 2.873-.046 2.983-.055.055-.532.257-1.055.46-1.285.495-1.359.56-1.533 1.193-.46 1.643-.973 2.919-1.653 4.057-.477.799-.477.799.037 1.992.257.588.468 1.148.468 1.24 0 .174-1.175 1.459-1.753 1.918l-.34.266-1.074-.459c-1.175-.505-1.514-.55-1.928-.266-.88.597-2.579 1.331-3.947 1.698-.45.12-.89.294-.973.377-.082.091-.321.615-.541 1.175-.22.55-.441 1.064-.487 1.129-.064.082-.459.11-1.57.091l-1.478-.027-.459-1.12c-.247-.624-.523-1.193-.605-1.267-.074-.073-.515-.248-.973-.367-1.405-.386-3.057-1.102-3.93-1.69-.413-.284-.725-.238-1.918.267l-1.083.46-.34-.267c-.578-.46-1.753-1.744-1.753-1.919 0-.091.211-.651.468-1.239.321-.762.44-1.138.395-1.285-.037-.11-.248-.514-.468-.9a14.486 14.486 0 0 1-1.396-3.369c-.174-.642-.33-1.028-.459-1.129-.1-.082-.633-.33-1.175-.541-.541-.22-1.046-.44-1.101-.487-.129-.092-.175-2.781-.046-2.965.037-.055.459-.257.936-.45 1.441-.569 1.542-.633 1.652-1.083.414-1.597.983-2.974 1.882-4.562.276-.487.276-.523-.284-1.818-.22-.523-.404-1.028-.404-1.12 0-.192 1.89-2.111 2.074-2.111.074 0 .625.202 1.221.459.597.248 1.166.459 1.267.459.092 0 .377-.129.633-.294.248-.156.863-.486 1.368-.725.836-.395 1.249-.542 2.938-1.065l.55-.165.496-1.212c.432-1.083.514-1.212.735-1.248.394-.064 2.139-.064 2.497-.01Zm-8.197 30.357c.643.321 1.597.716 2.13.881.532.165 1.019.33 1.092.367.064.028.285.468.487.973.486 1.221.79 1.542 1.643 1.735l.422.101-2.01 4.452c-2.203 4.866-2.295 5.022-2.901 4.92-.266-.036-.55-.266-1.487-1.193-.633-.624-1.276-1.202-1.441-1.285-.239-.12-.634-.147-2.158-.147-1.028 0-2.02-.046-2.203-.092-.404-.119-.624-.394-.624-.789 0-.275 3.929-9.5 4.14-9.721.092-.092 1.533-.753 1.67-.771.047-.01.607.247 1.24.569Zm16-.248c.422.184.817.376.881.44.22.212 4.159 9.428 4.159 9.731a.989.989 0 0 1-.175.523c-.174.22-.201.22-2.322.267-1.827.045-2.185.073-2.46.22-.175.092-.835.68-1.469 1.303-1.313 1.304-1.588 1.432-2.056 1.028-.386-.32-4.406-9.198-4.195-9.234 1.092-.22 1.423-.533 1.937-1.818.22-.532.44-.982.495-1 .937-.24 2.424-.808 3.223-1.23.56-.294 1.055-.542 1.11-.551.055 0 .44.137.872.321Z"/><path fill="#FF9A00" d="M22.123 5.554c-.073.018-.45.082-.826.137-1.542.248-3.24.927-4.69 1.882-2.856 1.873-4.82 4.865-5.463 8.354-.193 1.055-.193 3.102 0 4.204.771 4.26 3.617 7.83 7.573 9.455 6.775 2.79 14.477-.79 16.707-7.757.413-1.313.57-2.322.57-3.791 0-1.864-.285-3.286-.974-4.93-1.349-3.185-4.195-5.829-7.48-6.958-1.25-.422-2.094-.56-3.719-.596-.853-.019-1.625-.019-1.698 0Zm3.149 1.652c4.342.753 7.729 3.865 8.849 8.096.285 1.102.386 3.158.211 4.36-.542 3.719-3.13 7.014-6.646 8.474-5.324 2.203-11.41-.083-13.99-5.233-.863-1.735-1.156-3.167-1.092-5.278.027-1.138.091-1.607.275-2.323 1.11-4.204 4.48-7.316 8.776-8.087.945-.174 2.653-.174 3.617-.01Z"/><path fill="#FF9A00" d="M27.264 12.769c-.312.137-1.24 1-3.636 3.405l-3.221 3.213-.45-.257c-.386-.23-.542-.266-1.139-.266-.78 0-1.22.184-1.707.707-.615.643-.79 1.386-.542 2.249.138.486.257.633 1.267 1.662.615.624 1.276 1.22 1.478 1.321.514.267 1.212.313 1.808.12.469-.147.762-.422 4.7-4.351 3.057-3.039 4.269-4.306 4.434-4.627.276-.532.312-1.386.092-1.918-.505-1.185-1.937-1.772-3.084-1.258Zm1.44 1.57c.276.303.331.578.175.872-.073.137-1.927 2.047-4.112 4.231-3.525 3.516-4.02 3.975-4.324 4.03-.34.055-.358.037-1.368-.963-.945-.928-1.028-1.038-1.028-1.35 0-.266.064-.395.257-.56.386-.34.726-.294 1.23.184.487.459.817.578 1.139.422.11-.064 1.78-1.68 3.7-3.59 3.276-3.267 3.515-3.478 3.818-3.478.22 0 .385.064.514.202Z"/></svg>