<svg xmlns="http://www.w3.org/2000/svg" width="43" height="39" fill="none"><path fill="#61DAFB" d="M35.122 12.882a42.329 42.329 0 0 0-1.36-.428c.075-.311.142-.622.21-.933 1.033-5.005.352-9.028-1.94-10.355-2.21-1.268-5.812.05-9.457 3.225-.361.31-.714.638-1.05.966a25.39 25.39 0 0 0-.697-.647c-3.821-3.393-7.65-4.82-9.944-3.485-2.2 1.276-2.855 5.064-1.931 9.8.092.471.193.933.31 1.403-.537.152-1.066.32-1.562.496C3.217 14.478 0 16.93 0 19.466c0 2.62 3.427 5.25 8.088 6.845.378.126.756.252 1.142.361-.126.504-.235 1-.336 1.512-.882 4.661-.193 8.356 2.007 9.625 2.268 1.31 6.08-.034 9.793-3.284.294-.26.588-.53.882-.815.37.361.755.706 1.142 1.041 3.594 3.091 7.147 4.343 9.339 3.074 2.267-1.31 3.006-5.282 2.05-10.12-.076-.37-.16-.747-.253-1.134.269-.075.53-.16.79-.243C39.49 24.724 43 22.128 43 19.466c0-2.544-3.309-5.014-7.878-6.584ZM23.76 5.752c3.124-2.721 6.039-3.788 7.366-3.024 1.419.815 1.965 4.107 1.075 8.432-.06.286-.118.563-.194.84a43.002 43.002 0 0 0-5.652-.89 42.44 42.44 0 0 0-3.577-4.46c.327-.31.646-.604.982-.898Zm-9.717 18.073c.428.73.865 1.461 1.327 2.175a38.021 38.021 0 0 1-3.897-.63c.37-1.209.832-2.46 1.37-3.737.385.74.78 1.47 1.2 2.192Zm-2.544-10.103a41.76 41.76 0 0 1 3.83-.655 49.7 49.7 0 0 0-1.294 2.133 49.706 49.706 0 0 0-1.193 2.184 40.024 40.024 0 0 1-1.343-3.662Zm2.3 5.786a52.76 52.76 0 0 1 1.798-3.41 50.68 50.68 0 0 1 2.05-3.266 52.493 52.493 0 0 1 7.71 0 57.194 57.194 0 0 1 3.863 6.643 55.718 55.718 0 0 1-1.815 3.426 57.41 57.41 0 0 1-2.032 3.276 52.85 52.85 0 0 1-3.872.134c-1.319 0-2.595-.042-3.83-.117a51.06 51.06 0 0 1-3.871-6.686Zm15.168 4.3c.428-.739.832-1.486 1.226-2.242a38.989 38.989 0 0 1 1.42 3.72c-1.302.294-2.62.521-3.947.672.453-.705.881-1.427 1.301-2.15Zm1.21-6.424a69.966 69.966 0 0 0-1.218-2.2 54.66 54.66 0 0 0-1.285-2.117c1.352.168 2.645.394 3.855.672a37.16 37.16 0 0 1-1.352 3.645Zm-8.66-9.449a36.877 36.877 0 0 1 2.487 3.007 55.077 55.077 0 0 0-4.997 0 42.43 42.43 0 0 1 2.51-3.007Zm-9.741-5.148c1.41-.823 4.543.353 7.844 3.275.21.185.42.387.638.588a42.675 42.675 0 0 0-3.603 4.46 44.28 44.28 0 0 0-5.644.873c-.109-.428-.201-.865-.294-1.301-.789-4.065-.268-7.13 1.059-7.895ZM9.717 24.925c-.353-.1-.697-.21-1.041-.327-1.79-.563-3.822-1.453-5.291-2.62a3.769 3.769 0 0 1-1.58-2.512c0-1.537 2.655-3.502 6.484-4.837.479-.168.966-.32 1.453-.462a44.668 44.668 0 0 0 2.058 5.341 45.925 45.925 0 0 0-2.083 5.417Zm9.793 8.23a15.371 15.371 0 0 1-4.737 2.965 3.717 3.717 0 0 1-2.965.11c-1.335-.773-1.89-3.738-1.134-7.727.093-.47.194-.94.311-1.402 1.881.403 3.78.68 5.703.823a44.325 44.325 0 0 0 3.628 4.484c-.269.26-.538.513-.806.748Zm2.057-2.04a39.71 39.71 0 0 1-2.544-3.049c.806.034 1.637.05 2.477.05.865 0 1.713-.016 2.553-.058a36.228 36.228 0 0 1-2.486 3.057Zm10.977 2.52a3.732 3.732 0 0 1-1.386 2.628c-1.335.773-4.182-.235-7.256-2.872-.353-.302-.706-.63-1.067-.966a41.55 41.55 0 0 0 3.544-4.501 41.408 41.408 0 0 0 5.728-.882c.084.344.16.688.227 1.024a15.31 15.31 0 0 1 .21 5.569Zm1.529-9.029c-.236.076-.47.151-.714.218a42.677 42.677 0 0 0-2.142-5.358 42.452 42.452 0 0 0 2.058-5.282c.436.126.856.26 1.26.394 3.913 1.344 6.66 3.343 6.66 4.872 0 1.646-2.932 3.77-7.123 5.156ZM21.5 23.346a3.846 3.846 0 1 0 .001-7.691 3.846 3.846 0 0 0-.001 7.691Z"/></svg>