<svg xmlns="http://www.w3.org/2000/svg" width="40" height="40" fill="none"><path fill="#0B6CB4" d="M9.078.056c-.82.156-1.656.883-1.976 1.695-.157.399-.18.618-.211 2.22l-.032 1.78h30.407v24.61h-4.688v2.742l2.602-.023c2.484-.024 2.61-.04 3.039-.203.625-.25 1.172-.774 1.484-1.407l.258-.523V2.119l-.242-.508C39.406.97 39 .564 38.359.25L37.852.01 23.632.001C15.813-.006 9.267.017 9.079.056Zm18.406 1.43c.29.148.696.586.79.851.187.5.062 1.157-.297 1.57-.22.25-.688.438-1.102.438-1.54 0-2.078-1.976-.758-2.773.383-.227 1.024-.266 1.367-.086Zm4.36.172c.406.328.617.758.617 1.25-.016 1.086-1.18 1.765-2.188 1.281-.937-.453-1.093-1.688-.296-2.438.32-.304.546-.375 1.093-.351.407.016.532.062.774.258Zm4.07 0c.672.531.828 1.406.383 2.054-.39.555-1.227.797-1.867.524-.57-.235-.977-.992-.875-1.625.062-.375.453-.89.82-1.094.43-.234 1.156-.164 1.54.14Z"/><path fill="#0B6CB4" d="M2.953 8.61C1.57 8.948.484 10.026.117 11.432.016 11.814 0 13.533 0 24.134c0 10.93.016 12.313.125 12.742.328 1.29 1.195 2.227 2.5 2.72l.46.179 6.892.023 6.89.024-.25-.532-.25-.53-.023-2.055-.024-2.047H2.734l.016-11.399.023-11.398.196-.211c.422-.453-.078-.43 8.75-.43 8.922 0 8.476-.023 8.804.453.125.188.141.477.18 2.907l.04 2.695 1.35.023 1.345.016v-2.742c0-3.031-.032-3.328-.493-4.133-.515-.914-1.586-1.68-2.625-1.875-.265-.047-3.39-.078-8.672-.07-6.75.007-8.328.023-8.695.117Zm9.617 27.4c.79.523.883 1.6.203 2.288-.742.742-1.812.602-2.343-.312-.438-.75-.11-1.758.703-2.133.367-.164 1.055-.094 1.437.156Z"/><path fill="#0B6CB4" d="M19.555 19.033c-.344.07-.836.351-1.055.593-.07.086-.203.313-.29.5-.155.344-.163.47-.163 9.282 0 7.398.015 8.968.11 9.187.148.36.562.813.937 1.008.32.172.328.172 5.32.172 4.969 0 5 0 5.313-.164.398-.219.71-.531.93-.93l.163-.312.024-8.782c.023-9.804.047-9.32-.516-9.945a2.204 2.204 0 0 0-.64-.484c-.344-.164-.461-.164-5.079-.18-2.601-.008-4.875.023-5.054.055Zm9.273 9.492v7.46h-8.75V21.065h8.75v7.46Zm-3.976 8.437c.289.157.539.547.539.86 0 .554-.594 1.047-1.141.937-.336-.062-.719-.445-.781-.773-.094-.531.398-1.14.93-1.14.117 0 .32.054.453.116Z"/></svg>