<svg xmlns="http://www.w3.org/2000/svg" width="41" height="41" fill="none"><path fill="#007095" d="M20.5 0C9.179 0 0 9.179 0 20.5S9.179 41 20.5 41 41 31.821 41 20.5 31.821 0 20.5 0Zm14.991 12.305c.074.544.114 1.128.114 1.755 0 1.732-.324 3.68-1.298 6.12l-5.219 15.084c5.079-2.96 8.495-8.465 8.495-14.764 0-2.97-.757-5.762-2.092-8.195Zm-14.69 9.69-5.126 14.894a17.07 17.07 0 0 0 10.497-.27 1.596 1.596 0 0 1-.123-.237L20.8 21.995Zm11.23-2.356c0-2.112-.757-3.573-1.408-4.711-.867-1.408-1.678-2.6-1.678-4.007 0-1.572 1.191-3.033 2.87-3.033.076 0 .146.01.22.013A17.015 17.015 0 0 0 20.5 3.417c-5.97 0-11.218 3.063-14.274 7.7.4.014.777.02 1.101.02 1.785 0 4.555-.216 4.555-.216.92-.054 1.027 1.298.11 1.408 0 0-.925.106-1.956.163l6.22 18.505 3.74-11.211-2.662-7.294c-.921-.053-1.792-.163-1.792-.163-.921-.054-.814-1.462.107-1.408 0 0 2.819.216 4.497.216 1.785 0 4.555-.216 4.555-.216.92-.054 1.027 1.298.11 1.408 0 0-.928.106-1.955.163l6.172 18.361 1.762-5.585c.784-2.44 1.241-4.167 1.241-5.629ZM3.417 20.5c0 6.763 3.93 12.606 9.63 15.375L4.894 13.547A17.022 17.022 0 0 0 3.417 20.5ZM20.5 1.231c2.602 0 5.125.51 7.5 1.515a19.522 19.522 0 0 1 3.274 1.775A19.259 19.259 0 0 1 39.769 20.5c0 2.602-.51 5.125-1.515 7.5a19.522 19.522 0 0 1-1.775 3.274A19.256 19.256 0 0 1 20.5 39.769c-2.603 0-5.125-.51-7.5-1.515a19.524 19.524 0 0 1-3.274-1.775A19.262 19.262 0 0 1 2.746 28 19.096 19.096 0 0 1 1.231 20.5c0-2.602.51-5.125 1.515-7.5a19.524 19.524 0 0 1 1.775-3.274A19.265 19.265 0 0 1 13 2.746 19.096 19.096 0 0 1 20.5 1.231Z"/></svg>